<?xml version="1.0" encoding="UTF-8" standalone="no"?>
<!DOCTYPE svg PUBLIC "-//W3C//DTD SVG 1.1//EN" "http://www.w3.org/Graphics/SVG/1.1/DTD/svg11.dtd">
<svg width="100%" height="100%" viewBox="0 0 80 80" version="1.1" xmlns="http://www.w3.org/2000/svg"
     xml:space="preserve" style="fill-rule:evenodd;clip-rule:evenodd;stroke-linejoin:round;stroke-miterlimit:2;">
    <g id="Layer-1" transform="matrix(5.55556,0,0,5.55556,0,0)">
        <g transform="matrix(1.02834,0,0,1.02834,0.102891,-1.1426)">
            <path d="M6.611,10.17C6.696,10.245 6.806,10.318 6.942,10.388C7.077,10.46 7.237,10.532 7.427,10.606C7.616,10.676 7.814,10.727 8.02,10.762C8.224,10.796 8.433,10.814 8.647,10.814C8.985,10.814 9.292,10.773 9.566,10.691C9.84,10.61 10.079,10.486 10.28,10.319C10.481,10.153 10.632,9.962 10.735,9.751C10.838,9.539 10.888,9.307 10.888,9.054C10.887,8.785 10.834,8.553 10.731,8.359C10.628,8.162 10.492,7.993 10.324,7.854C10.156,7.714 9.969,7.593 9.766,7.491C9.564,7.39 9.362,7.3 9.16,7.22C8.957,7.139 8.77,7.062 8.602,6.987C8.433,6.912 8.297,6.832 8.193,6.745C8.092,6.659 8.038,6.557 8.037,6.443C8.038,6.324 8.072,6.226 8.138,6.147C8.205,6.07 8.294,6.009 8.407,5.972C9.003,5.765 9.795,5.946 10.223,6.421L10.762,5.339C10.045,4.827 9.553,4.676 8.796,4.672C8.467,4.672 8.171,4.712 7.904,4.791C7.638,4.871 7.399,4.987 7.185,5.143C6.973,5.299 6.813,5.481 6.71,5.687C6.604,5.896 6.553,6.132 6.553,6.397C6.555,6.663 6.608,6.894 6.71,7.089C6.813,7.282 6.95,7.451 7.118,7.592C7.288,7.731 7.473,7.852 7.676,7.953C7.877,8.055 8.081,8.146 8.282,8.229C8.486,8.31 8.672,8.391 8.84,8.469C9.009,8.546 9.144,8.631 9.249,8.723C9.35,8.814 9.404,8.92 9.405,9.042C9.404,9.154 9.369,9.25 9.301,9.327C9.23,9.407 9.138,9.466 9.025,9.509C8.907,9.551 8.778,9.572 8.634,9.572C8.491,9.572 8.348,9.556 8.209,9.527C8.069,9.499 7.927,9.456 7.783,9.399C7.645,9.336 7.53,9.28 7.438,9.234C7.346,9.185 7.277,9.145 7.232,9.111L7.036,8.927L6.368,9.951L6.611,10.17Z" style="fill:rgb(43,41,41);fill-rule:nonzero;"/>
        </g>
        <g transform="matrix(-2.42934e-18,-1.08893,-1.04926,-2.42934e-18,23.7871,17.9519)">
            <rect x="12.023" y="9.633" width="1.157" height="1.199" style="fill:rgb(245,179,181);"/>
        </g>
        <g transform="matrix(1.0494,0.00122502,0.00118244,-1.01293,-0.181783,14.6827)">
            <rect x="12.004" y="5.399" width="1.194" height="4.136" style="fill:rgb(252,194,5);"/>
        </g>
        <g transform="matrix(0.913301,0,0,1.01335,1.46335,-0.433519)">
            <rect x="11.406" y="5.4" width="0.598" height="4.136" style="fill:rgb(255,237,0);"/>
        </g>
        <g transform="matrix(0.905127,0,0,1.08893,1.55657,-6.9122)">
            <rect x="11.406" y="9.654" width="0.598" height="1.157" style="fill:rgb(247,194,199);"/>
        </g>
        <g transform="matrix(0.99754,0,0,1.02711,0.50256,4.87536)">
            <path d="M11.406,4.24L13.203,4.24L12.304,5.4L11.406,4.24Z" style="fill:rgb(255,247,179);"/>
        </g>
        <g transform="matrix(1.00187,0,0,1.03345,0.449062,5.55211)">
            <path d="M11.94,4.242L12.67,4.239L12.304,4.712L11.94,4.242Z" style="fill:rgb(230,54,36);"/>
        </g>
        <g transform="matrix(0.919713,0,0,1.03512,1.39021,3.42102)">
            <path d="M11.705,5.4L12.004,5.612L11.406,5.612L11.705,5.4Z" style="fill:rgb(255,247,179);"/>
        </g>
        <g transform="matrix(1.05623,0,0,1.03512,-0.24848,3.42102)">
            <path d="M12.304,5.4L12.601,5.612L12.004,5.612L12.304,5.4Z" style="fill:rgb(255,247,179);"/>
        </g>
        <g transform="matrix(1.05623,0,0,1.03512,-0.249737,3.42102)">
            <path d="M12.304,5.4L12.601,5.612L12.004,5.612L12.304,5.4Z" style="fill:rgb(255,247,179);"/>
        </g>
        <g transform="matrix(1.02194,0,0,1.03512,0.183633,3.42102)">
            <path d="M12.901,5.4L13.2,5.612L12.601,5.612L12.901,5.4Z" style="fill:rgb(255,247,179);"/>
        </g>
        <g transform="matrix(1.02834,0,0,1.02834,0.102891,-1.1426)">
            <path d="M0.6,7.742C0.6,8.18 0.673,8.582 0.816,8.948C0.962,9.316 1.182,9.646 1.475,9.939C1.768,10.232 2.107,10.452 2.492,10.597C2.878,10.741 3.309,10.814 3.787,10.814C4.544,10.814 5.606,10.578 6.148,9.99C6.17,9.966 6.188,9.948 6.202,9.932L5.6,8.927C5.027,9.373 4.775,9.572 3.913,9.572C3.643,9.572 3.396,9.527 3.174,9.441C2.952,9.353 2.683,9.22 2.517,9.042C2.35,8.864 2.223,8.664 2.139,8.447C2.053,8.227 2.011,7.991 2.011,7.731C2.011,7.471 2.05,7.236 2.133,7.022C2.214,6.809 2.339,6.617 2.505,6.443C2.672,6.265 2.936,6.132 3.15,6.044C3.362,5.957 3.603,5.913 3.867,5.913C4.431,5.913 5.012,5.972 5.396,6.436L6.04,5.435C5.371,4.799 4.693,4.672 3.787,4.672C2.831,4.672 2.062,4.971 1.475,5.568C1.182,5.862 0.962,6.189 0.816,6.551C0.673,6.914 0.6,7.311 0.6,7.742" style="fill:rgb(92,92,92);fill-rule:nonzero;"/>
        </g>
        <g transform="matrix(1.02834,0,0,1.02834,0.102891,7.27562)">
            <path d="M0.999,3.676C1.092,3.472 1.245,3.298 1.434,3.176C1.618,3.059 1.834,2.991 2.068,2.991C2.293,2.991 2.495,3.054 2.668,3.164C2.847,3.276 2.993,3.437 3.105,3.63C3.182,3.736 3.284,3.825 3.397,3.887C3.503,3.945 3.621,3.979 3.743,3.979C3.877,3.979 4.005,3.945 4.116,3.885C4.227,3.823 4.322,3.734 4.395,3.626C4.49,3.42 4.637,3.25 4.818,3.13C5.003,3.008 5.222,2.94 5.457,2.94C5.682,2.94 5.884,3.002 6.059,3.111C6.236,3.223 6.383,3.385 6.495,3.577C6.572,3.683 6.674,3.774 6.787,3.835C6.894,3.892 7.011,3.927 7.131,3.927C7.281,3.927 7.415,3.901 7.528,3.845C7.624,3.799 7.704,3.727 7.764,3.629C7.852,3.444 8,3.282 8.187,3.168C8.366,3.058 8.579,2.991 8.809,2.991C9.035,2.991 9.236,3.054 9.41,3.164C9.588,3.276 9.735,3.437 9.846,3.63C9.924,3.736 10.025,3.825 10.14,3.887C10.245,3.945 10.364,3.979 10.484,3.979C10.621,3.979 10.746,3.945 10.857,3.885C10.967,3.825 11.061,3.737 11.134,3.629C11.239,3.4 11.413,3.208 11.633,3.086L11.853,3.376C11.485,3.58 11.475,3.979 11.041,4.218C10.874,4.309 10.684,4.359 10.484,4.359C10.299,4.359 10.119,4.308 9.958,4.22C9.792,4.13 9.645,3.999 9.534,3.847L9.53,3.841L9.524,3.83C9.442,3.685 9.335,3.564 9.208,3.486C9.094,3.414 8.96,3.372 8.809,3.372C8.652,3.372 8.505,3.417 8.384,3.492C8.258,3.569 8.158,3.677 8.103,3.799L8.097,3.81L8.094,3.817C7.993,3.984 7.857,4.106 7.696,4.186C7.528,4.27 7.336,4.307 7.131,4.307C6.946,4.307 6.767,4.255 6.606,4.167C6.439,4.078 6.294,3.948 6.183,3.794L6.178,3.788L6.171,3.777C6.09,3.632 5.984,3.512 5.856,3.432C5.743,3.361 5.61,3.319 5.457,3.319C5.298,3.319 5.149,3.366 5.026,3.447C4.9,3.53 4.797,3.651 4.731,3.798L4.725,3.815L4.719,3.823C4.612,3.99 4.467,4.124 4.299,4.218C4.132,4.309 3.943,4.359 3.743,4.359C3.557,4.359 3.378,4.308 3.217,4.22C3.049,4.129 2.903,3.999 2.793,3.847L2.789,3.841L2.782,3.83C2.7,3.685 2.594,3.565 2.466,3.486C2.353,3.414 2.219,3.372 2.068,3.372C1.909,3.372 1.761,3.417 1.638,3.497C1.511,3.579 1.408,3.696 1.343,3.835L0.999,3.676Z" style="fill:rgb(230,54,36);fill-rule:nonzero;"/>
        </g>
    </g>
</svg>
